PathFileType	4	(X/Y/Z)	RBDS016\RBDS016runT45.trc
DataRate	CameraRate	NumFrames	NumMarkers	Units	OrigDataRate	OrigDataStartFrame	OrigNumFrames
150.000000	150.000000	4	33	mm	150.000000	1125	4500
Frame#	Time	L.ASIS			L.Heel.Bottom			L.Heel.Lateral			L.Heel.Top			L.Iliac.Crest			L.MT1			L.MT5			L.PSIS			L.Shank.Bottom.Lateral			L.Shank.Bottom.Medial			L.Shank.Top.Lateral			L.Shank.Top.Medial			L.Thigh.Bottom.Lateral			L.Thigh.Bottom.Medial			L.Thigh.Top.Lateral			L.Thigh.Top.Medial			R.ASIS			R.ASY			R.Heel.Bottom			R.Heel.Lateral			R.Heel.Top			R.Iliac.Crest			R.MT1			R.MT5			R.PSIS			R.Shank.Bottom.Lateral			R.Shank.Bottom.Medial			R.Shank.Top.Lateral			R.Shank.Top.Medial			R.Thigh.Bottom.Lateral			R.Thigh.Bottom.Medial			R.Thigh.Top.Lateral			R.Thigh.Top.Medial			
		X1	Y1	Z1	X2	Y2	Z2	X3	Y3	Z3	X4	Y4	Z4	X5	Y5	Z5	X6	Y6	Z6	X7	Y7	Z7	X8	Y8	Z8	X9	Y9	Z9	X10	Y10	Z10	X11	Y11	Z11	X12	Y12	Z12	X13	Y13	Z13	X14	Y14	Z14	X15	Y15	Z15	X16	Y16	Z16	X17	Y17	Z17	X18	Y18	Z18	X19	Y19	Z19	X20	Y20	Z20	X21	Y21	Z21	X22	Y22	Z22	X23	Y23	Z23	X24	Y24	Z24	X25	Y25	Z25	X26	Y26	Z26	X27	Y27	Z27	X28	Y28	Z28	X29	Y29	Z29	X30	Y30	Z30	X31	Y31	Z31	X32	Y32	Z32	X33	Y33	Z33	

1126	7.500000000000001	2478.476848492601	941.705568227476	902.2896810400348	2646.034931524046	42.76385374224928	954.7589598808219	2658.186310136131	62.35254340395155	907.2652768622615	2633.850959777096	88.11523807552304	945.7472241308516	2411.828355750983	1022.310791688894	831.0549238735701	2836.046483169639	159.4050789964871	956.6255872705731	2803.073937968094	114.5316099140703	862.0385880046438	2305.452937175595	994.3202050364665	945.7658694475987	2633.651563649295	201.0104820885536	880.8492521432356	2614.561789155053	202.3291918121375	933.7197665832477	2600.06351038204	273.40210417993	868.8331907190615	2583.577498265258	275.9321272589913	920.0931554935013	2531.097088912657	584.4749433447595	824.5123496255641	2476.440448744579	560.3191847571948	865.5340229738692	2475.589606406944	677.6738110651914	805.1823196747828	2424.298863203694	655.1622686971549	845.6158547412406	2478.59582354074	919.0958896207521	1110.565350802184	1817.33795856337	246.8587204165278	1029.849704536264	1757.483037485258	402.7045099106141	931.1373904142708	1765.227166946308	397.1388940008231	985.0896123167588	1804.937096765735	404.4024332213878	949.9712649551318	2442.560629398805	1008.880457931286	1138.184273943094	1805.045457315459	200.7278375430541	994.9949103993778	1750.697891632857	261.3310727624099	1069.201327211171	2303.330520484546	1002.740690936702	1045.206106528261	1859.346858507475	404.8259945284806	1042.267691298121	1857.11245485286	431.2025618284188	998.1799019088106	1922.635121405025	455.606013946891	1066.637572228042	1916.264171085174	481.4407886111196	1020.524770013541	2193.141428932768	636.7630111868045	1130.379545945085	2160.814434668361	662.5820221895481	1070.837998992052	2237.212299299933	736.6189085829594	1146.967366025199	2207.564332074373	760.163140530992	1089.985707339673	
1127	7.506666666666667	2477.76270060191	939.4806013390687	901.5958561407482	2660.09278136238	40.30980224595083	956.9485282718572	2670.781351614116	59.89504657772436	909.0617610261191	2645.398749991049	85.1370012087034	947.4488926250569	2410.422167900691	1018.775414846628	831.2171178400758	2844.877318585926	167.1540814671543	955.1914746454311	2812.874414622586	118.9458560520927	861.5839706266145	2304.249402548998	992.3582157403023	946.4449364236533	2639.952202169131	198.9332497711162	881.6144013580631	2621.275049597772	199.9449950786843	934.6649010353366	2603.560217286271	270.1255124728881	869.4907405982774	2587.429267566848	272.4228049256847	920.8984856904372	2525.527700221671	580.6252034260958	823.3458932557289	2471.49709768092	557.8136457451	866.1715204312098	2470.894903593105	674.4734445789655	804.4122463195396	2420.32757318068	653.2645837584732	846.6889140294845	2478.849094038279	919.6694130460586	1111.019847353571	1807.399266980441	265.0376836269622	1027.246875955349	1756.110487980089	423.7479217511701	929.2322112821516	1763.72452353065	417.6005390209283	983.0314542098886	1803.541067019739	422.5696081797499	947.4868160786851	2438.604855235016	1009.92628877453	1139.291244194999	1792.353079107568	219.7380362986538	992.2946496987743	1741.98707609948	283.1255485450906	1066.955570966795	2302.680337442054	1002.115308535457	1045.763254189034	1857.774809867963	418.7246128623912	1040.678153066337	1856.986352905348	446.2535458468614	997.2587182939915	1923.933849898446	465.2854269130216	1066.004200754951	1918.968738609251	492.5725609633669	1020.587968296445	2198.839236690873	631.2907091381353	1131.407367922584	2165.876247060609	656.8494163971378	1072.144913498734	2241.265415353372	731.7520422409824	1148.499673628435	2210.848364519142	755.1139917684912	1091.876824003218	
1128	7.513333333333334	2477.021126995254	936.918407391059	900.5977318632056	2668.992503061925	38.44253030998328	959.2738157977617	2678.372434834384	57.83056486006456	910.9811634151722	2652.486984185689	82.81736244418039	949.3285702449278	2408.649754277031	1014.590120792181	831.3017283538726	2849.732596940299	172.3567036123752	953.5050104357425	2817.958819173304	121.5309806750454	860.9736280458574	2302.888962713236	989.368521438172	947.1926153031274	2643.111645601549	196.9307684373009	882.526003716747	2624.944196464263	197.8165436276843	935.7652807732198	2604.814973514738	267.2173640132153	870.3670690954748	2589.118394931706	269.4403020324124	921.9283660254813	2520.653470238037	577.259299366056	822.6519431114353	2467.125352660572	555.5067807883164	866.9084255665252	2466.743907454123	671.6211095048723	804.0638626651405	2416.744530829043	651.4020885108649	847.7590987161764	2479.049812815189	919.6971531716109	1111.426625854056	1799.659708444716	283.0322259055463	1024.504175286963	1757.214099179222	444.8148558428099	928.1829544287502	1764.72110635286	437.7330395854916	981.7559953507799	1804.527756663203	440.5371818764239	945.8030517104678	2434.579852353872	1010.137287173318	1140.637789218928	1781.710001260861	238.86380723177	989.1315072541724	1735.654367793035	304.4365551648011	1064.662642958461	2302.094994867338	1000.212962716139	1046.555702754153	1858.354298421345	432.0111630802787	1039.564611727696	1858.973963637943	460.720116611424	996.9290623549176	1927.148050759718	474.1418644649177	1065.845094212074	1923.565437245772	502.9200204158801	1021.247923312332	2205.328374444351	624.5366422479854	1132.450686839016	2171.41089270143	649.9191107334127	1073.7184557751	2245.895356665491	725.6212254103066	1150.217913931362	2214.384679557528	748.8779663499623	1094.203596638944	
1129	7.52	2476.257382386193	934.1373998603603	899.3533695147614	2672.592117009135	36.80974738913847	961.5902870303322	2680.913342713524	55.82122743257035	912.9057192426847	2655.047057644507	80.85595425296964	951.2460074478334	2406.543169114294	1009.941163470249	831.3213471712477	2850.778663070193	174.5297831642969	951.8211614695778	2818.539424069266	121.8434287624196	860.3591308674158	2301.402272723841	985.4126559124138	948.0065561962838	2643.175979876637	194.691012687411	883.5083292470504	2625.548473632334	195.6194418631054	936.928124606948	2603.852012995875	264.4258439354185	871.3600436516583	2588.611122329517	266.7182129752425	923.0634411656749	2516.553056509339	574.3897512134323	822.4622699136813	2463.327804152706	553.3698722094956	867.6485421249973	2463.244174143732	669.1573597152108	804.1772406883466	2413.588301767812	649.5846646740446	848.7626439898547	2479.195893676384	919.131979369486	1111.78140381267	1794.287410554938	300.6705254535518	1021.7870290515	1760.940124073698	465.5912819882879	927.9314930302111	1768.297284542935	457.2836985179821	981.2288129473892	1808.00875139909	458.0642863550158	944.9316167397774	2430.70730460505	1009.473578711305	1142.163443105798	1773.385364001456	257.898472682038	985.7302233368387	1731.820600543365	325.0766921441085	1062.433481738058	2301.618674848435	997.0137482642872	1047.583790893008	1861.141892198926	444.5617239983386	1038.927948375544	1863.16421524929	474.4111104129779	997.1498151714493	1932.28888486203	482.1077152791609	1066.131559853716	1930.101545467531	512.3442598543909	1022.427548088739	2212.479598853855	616.7100281092025	1133.47361903338	2177.328924344552	641.9377236918922	1075.478563686681	2250.996342444559	718.4297426187618	1152.009759236289	2218.103385845835	741.6000504458948	1096.817526454129	
